<svg id="Calque_2" data-name="Calque 2" xmlns="http://www.w3.org/2000/svg" viewBox="0 0 634.84 644.79"><defs><style>.cls-1,.cls-2{fill:none;stroke:#000;stroke-miterlimit:10;}.cls-1{stroke-linecap:round;}.cls-3{fill:#1d1d1b;}</style></defs><title>animerender1</title><path d="M422.38,700.68a153.37,153.37,0,0,0,15.89.62q7.94-.06,15.85-.77c5.26-.49,10.5-1.16,15.69-2.11a144.66,144.66,0,0,0,15.41-3.58,129.1,129.1,0,0,0,14.93-5.17l1.83-.74,1.8-.82c1.19-.55,2.41-1.06,3.59-1.65,2.34-1.2,4.71-2.36,7-3.7s4.51-2.73,6.76-4.1l3.26-2.25,1.62-1.14,1.57-1.21a120.85,120.85,0,0,0,12-10.4,102.13,102.13,0,0,1-24.42,20.45,110.9,110.9,0,0,1-14.27,7.31,126.63,126.63,0,0,1-15.11,5.34,147.56,147.56,0,0,1-31.54,5.32A142,142,0,0,1,422.38,700.68Z" transform="translate(-91.89 -84.96)"/><path d="M372.43,710.81a98.29,98.29,0,0,1-31-.56A95.61,95.61,0,0,1,311.92,700,91.86,91.86,0,0,1,299,691.2l-3-2.57c-1-.86-1.88-1.81-2.82-2.71l-1.4-1.38-1.32-1.45-2.59-2.93a96.66,96.66,0,0,1-15.54-26.88,113.81,113.81,0,0,0,16.72,25.87,97.42,97.42,0,0,0,11.11,10.58,93,93,0,0,0,12.72,8.55,101.88,101.88,0,0,0,28.79,10.44A118.63,118.63,0,0,0,357,710.79,101.12,101.12,0,0,0,372.43,710.81Z" transform="translate(-91.89 -84.96)"/><line class="cls-1" x1="188.48" y1="583.72" x2="221.2" y2="523.86"/><path class="cls-1" d="M350.73,711.64,386.89,611s7.49-17.19-10.21-26.72" transform="translate(-91.89 -84.96)"/><path d="M277.87,545.19a38.84,38.84,0,0,1,1.25,5.95,41.13,41.13,0,0,1,.4,6.08,29.66,29.66,0,0,1-.62,6.08,15.85,15.85,0,0,1-2.3,5.64,22.66,22.66,0,0,0,1.53-5.78,43.72,43.72,0,0,0,.39-5.95c0-2-.06-4-.17-6S278.07,547.21,277.87,545.19Z" transform="translate(-91.89 -84.96)"/><path class="cls-1" d="M279,559s16.63,6.13,14.93-8.68" transform="translate(-91.89 -84.96)"/><path d="M264.85,590.18c12.1,3.7,24.07,7.86,35.8,12.63a180.78,180.78,0,0,1,17.29,7.91,88.67,88.67,0,0,1,8.15,4.93,37.2,37.2,0,0,1,7.21,6.21.06.06,0,0,1,0,.07s-.05,0-.07,0a30.72,30.72,0,0,0-3.6-3c-1.26-1-2.57-1.82-3.91-2.65q-4-2.51-8.24-4.62-8.4-4.32-17.13-8.06c-5.81-2.48-11.69-4.79-17.62-7s-11.89-4.32-17.9-6.28a0,0,0,0,1,0-.06S264.82,590.18,264.85,590.18Z" transform="translate(-91.89 -84.96)"/><path class="cls-1" d="M261.91,501.28c-.23-.49-2.68-.44-3.05-.37a4.71,4.71,0,0,0-2.13,1.39,21.22,21.22,0,0,0-2.35,2.84,68.54,68.54,0,0,0-4.31,7c-.47.87-.94,1.74-1.39,2.62l-.4.77a7.59,7.59,0,0,0-.56,3.06c-.1,1.81-.12,3.62-.12,5.43,0,2.45,0,4.9.08,7.35,0,2.81.13,5.63.22,8.44s.2,5.82.31,8.73q.16,4.1.34,8.2c.11,2.28.21,4.57.32,6.86.08,1.57.15,3.14.23,4.71l.09,1.75c.37,11.09,9,17.15,15.64,20.19,0,0,47.11,16.23,48.27,18.6" transform="translate(-91.89 -84.96)"/><path class="cls-1" d="M241,459.4s-11.62,1.54-13.41,4.09-14.2,30.23-9,47.54" transform="translate(-91.89 -84.96)"/><path class="cls-1" d="M202.55,729.25s.34-18.78,22.47-38.87c0,0,13.15-15.66,17.64-45.61,0,0,6.88-18.73,50.79,0" transform="translate(-91.89 -84.96)"/><path class="cls-1" d="M394.89,729.25s4.09-37.94-16.68-46.4c0,0-12.15-5.77-15.43-4.74" transform="translate(-91.89 -84.96)"/><path class="cls-1" d="M407.49,729.25s2.54-28.7,3.74-32.06c0,0-.94-3.41,17.44-22.13" transform="translate(-91.89 -84.96)"/><path class="cls-1" d="M436.93,701.76,410.64,592.43s-6.64-23,20.17-39.83c0,0,22.21-11.75,31.91-8.43" transform="translate(-91.89 -84.96)"/><path class="cls-1" d="M530.38,562.72a23.5,23.5,0,0,1,0-9" transform="translate(-91.89 -84.96)"/><path class="cls-1" d="M540.43,560a45.88,45.88,0,0,1-15.15-10.72" transform="translate(-91.89 -84.96)"/><path class="cls-1" d="M584.26,575.32s7.07-10.75,6.45-19.93c0-.25,0-.5-.07-.75-1-9.19-13.92-12.51-13.92-12.51s-29.1-16.34-35.36-31.28" transform="translate(-91.89 -84.96)"/><path class="cls-1" d="M504.85,615.4" transform="translate(-91.89 -84.96)"/><path class="cls-1" d="M598.55,560s4.17-18.38-9.11-25.13a4.88,4.88,0,0,1-1.48-1.11c-3.48-3.89-20.37-23-27.45-36.06,0,0-6.39-11.63-17.37-8.31" transform="translate(-91.89 -84.96)"/><path class="cls-1" d="M607.49,559.15s6.64-13.11-4.26-26.21-20.51-39.58-20.51-39.58c18.09-5.06,28.49,0,33,3.38a7,7,0,0,1,2.84,5.37c.94,26.47-2.2,47.32-3.43,58.66-1.08,9.91-8,11.37-9.87,12.41-25.44,14.55-99.61,43.89-99,41.62.23-.87-1.29,1.24-1.09,2.12,5.92,25.58,22,58.14,22,58.14" transform="translate(-91.89 -84.96)"/><path class="cls-1" d="M582.72,493.36s-8.17-23.06-39-11.15" transform="translate(-91.89 -84.96)"/><path class="cls-1" d="M602,513.09s-6.3,5.77-6.34,8.53" transform="translate(-91.89 -84.96)"/><path class="cls-1" d="M598.83,729.25s-20.76-19.8-27.92-43c0,0-10.57-43.24-35.08-42.21a36.8,36.8,0,0,0-21.22,2.14" transform="translate(-91.89 -84.96)"/><path class="cls-1" d="M376.92,638.75s40,24.49,46.3,6" transform="translate(-91.89 -84.96)"/><path class="cls-1" d="M566.05,591.86s-10.82,31.26-8.09,65.49" transform="translate(-91.89 -84.96)"/><path class="cls-1" d="M615.15,560.77S645.79,550.3,693,672.09" transform="translate(-91.89 -84.96)"/><path class="cls-1" d="M616.94,545s54.51,14,76.06,91.26" transform="translate(-91.89 -84.96)"/><path class="cls-1" d="M198.34,595.05c-61.73-3.07-85.37-22.49-89.62-26.5a15.5,15.5,0,0,0-1.79-1.42c-32-22.17-1.57-120.28.84-127.86.1-.32.19-.63.26-1,1.82-7.84,25-106.67,46.86-162.22,22.81-57.88,62-102.47,62-102.47S301.72,70.08,458.91,101a11.1,11.1,0,0,0,1.29.17c9.4.8,123.16,12.71,172.83,126.22.11.25.22.49.35.73l59.62,114s35.43,60,33.13,89.53-97.25,118.23-97.25,118.23" transform="translate(-91.89 -84.96)"/><path class="cls-2" d="M154.32,277.55S262.13,168.17,358.81,166.13c26-4.94,198.13,36.93,334.19,228.93,0,0,19.38,20.51,0,53.28-9.17,15.5-74.24,87.49-74.24,87.49" transform="translate(-91.89 -84.96)"/><path class="cls-1" d="M455.66,196.57" transform="translate(-91.89 -84.96)"/><path class="cls-1" d="M195.35,241.38s16-87.26,111-128.41" transform="translate(-91.89 -84.96)"/><path class="cls-1" d="M542.7,242.78S532.62,130.69,444.86,98.54" transform="translate(-91.89 -84.96)"/><circle class="cls-3" cx="417.66" cy="41.61" r="7.6"/><path d="M340.37,115.11c5.23-3.64,17-9.51,35.59-6.1a6.82,6.82,0,0,1,4.63,10.25c-2.39,3.93-7.45,9.4-17.32,16.94a6.43,6.43,0,0,1-1.48.86c-3,1.26-12.92,4.84-17-1.53,0,0-5.52-6.63-7.13-13.46A6.66,6.66,0,0,1,340.37,115.11Z" transform="translate(-91.89 -84.96)"/><path class="cls-2" d="M215.06,175.73s-1.78-33.6,13-46.54c0,0,12-10.66,48.46-2.18" transform="translate(-91.89 -84.96)"/><path class="cls-2" d="M174.54,235.05S175.66,113,226.89,98.55c0,0,36.41-13,90.8,10.28" transform="translate(-91.89 -84.96)"/><path class="cls-2" d="M488.26,106.25s56.62-36.83,117.16-12.44a28.35,28.35,0,0,1,7.69,4.57c11.51,9.73,40.63,44,21.14,131.38" transform="translate(-91.89 -84.96)"/><path class="cls-2" d="M526.54,119.67s46.57-21,63.42-5.12c0,0,20.72,15.36,11.21,61.13" transform="translate(-91.89 -84.96)"/><path class="cls-2" d="M628.88,549.89" transform="translate(-91.89 -84.96)"/><path class="cls-2" d="M693,488.93" transform="translate(-91.89 -84.96)"/><path class="cls-2" d="M202.21,371.4s1.12,28.6,29.67,73.2,35,70.12,35,70.12,6.63,55.15,135.83,73.19c0,0,6.38,2,7.19-3.65" transform="translate(-91.89 -84.96)"/><path d="M370.87,550.2q7.47-2.51,15.13-4.38a49.75,49.75,0,0,1,7.77-1.57,28.16,28.16,0,0,1,4-.1,8.88,8.88,0,0,1,4,1,.1.1,0,0,1,0,.14.11.11,0,0,1-.09,0h0a15.38,15.38,0,0,0-3.82.28c-1.26.2-2.53.42-3.8.67-2.54.49-5.14.71-7.71,1.16s-5.15.91-7.71,1.43-5.13,1-7.7,1.57a.09.09,0,0,1-.12-.07A.11.11,0,0,1,370.87,550.2Z" transform="translate(-91.89 -84.96)"/><path d="M349.1,516l7.51,5.87a.63.63,0,0,0,1-.3c.42-1.36.89-4.09-1.33-5.95s-5.33-1.21-7-.7A.62.62,0,0,0,349.1,516Z" transform="translate(-91.89 -84.96)"/><path class="cls-1" d="M208.17,468.65S196.44,436.56,195.59,401" transform="translate(-91.89 -84.96)"/><path class="cls-2" d="M257.07,489.68s-18.52-2.47-23.88,11.2-5.87,67.29,1,73.16,10.47,5.4,16.85,3.85" transform="translate(-91.89 -84.96)"/><path class="cls-2" d="M246.55,469.14s-7-3.35-12.85,7.37c0,0-8.93,12-10.21,18.64s-13.28,30.38,5.61,58.47" transform="translate(-91.89 -84.96)"/><path class="cls-2" d="M146.38,729.25S161.7,712,178,643.4c0,0,10.22-39.79,24.51-53.17,0,0,14.73-14.91,29.33-21.29" transform="translate(-91.89 -84.96)"/><path class="cls-2" d="M210.9,582.68s-96.35-2.25-102.9-47.19c0,0-2.47-48,19.66-103.49,0,0-3.06,47,9.53,70.64,0,0,1.66-75.53,6.47-89.19a149.57,149.57,0,0,0-4.43,52.08s24-75.23,33-76.08c0,0,12.42,61.89,35.91,79.2" transform="translate(-91.89 -84.96)"/><path class="cls-2" d="M162,404.4s7.74,11.6,8.64,48.11-4.32,47.11-4.32,47.11,20.15-10.34,19-42.51c0,0,2,47.87,18.13,74.93,0,0,.76-32,4.08-36,0,0,8.17,12.26,9.07,20.3l2.12,8.55" transform="translate(-91.89 -84.96)"/><path class="cls-1" d="M154.89,276.09S125.7,383.32,127.66,432" transform="translate(-91.89 -84.96)"/><path class="cls-1" d="M208.17,468.65" transform="translate(-91.89 -84.96)"/><path d="M195.4,245.79a166.06,166.06,0,0,0-8,23.42,222.26,222.26,0,0,0-5,24.22A204.16,204.16,0,0,0,181,342.76a187.83,187.83,0,0,0,10.94,48.06,199.29,199.29,0,0,0,10,22.55,205.45,205.45,0,0,0,12.82,21.12l-.72.36a286,286,0,0,1-7.27-28.06,273.89,273.89,0,0,1-4.47-28.63,181.77,181.77,0,0,1-.8-29,109.8,109.8,0,0,1,5.1-28.44,109.51,109.51,0,0,0-4.74,28.46,196.08,196.08,0,0,0,1,28.87,275.38,275.38,0,0,0,4.58,28.55,284.83,284.83,0,0,0,7.37,27.94l.84,2.61L214.13,435A192.43,192.43,0,0,1,191,391.15a188.94,188.94,0,0,1-10.78-48.32,207.72,207.72,0,0,1,6.89-73.7A166.72,166.72,0,0,1,195.4,245.79Z" transform="translate(-91.89 -84.96)"/><path class="cls-1" d="M206.64,320.77" transform="translate(-91.89 -84.96)"/><path class="cls-1" d="M206.64,320.77" transform="translate(-91.89 -84.96)"/><path d="M206.64,320.77c-.44,6.28-.57,12.58-.51,18.88s.37,12.59,1,18.84c.33,3.13.74,6.25,1.3,9.34a91.79,91.79,0,0,0,2.05,9.19,58.21,58.21,0,0,0,3.22,8.83,28.37,28.37,0,0,0,5.18,7.74l-.43,0a41,41,0,0,1,6.73-6.32c1.19-1,2.48-1.82,3.73-2.71s2.6-1.64,3.9-2.46a97.86,97.86,0,0,1,16.71-7.68l4.36-1.5,4.43-1.26,2.21-.63,2.24-.52,4.49-1c3-.61,6-1.06,9.07-1.6l9.13-1.08-.33.57a189,189,0,0,1-6.79-18c-2-6.09-3.67-12.28-5.05-18.54a148.82,148.82,0,0,1-2.78-19,93.73,93.73,0,0,1,.75-19.23l.92.07a106.08,106.08,0,0,0,2,17.75,97.43,97.43,0,0,0,4.95,17.17,80.35,80.35,0,0,0,3.78,8.09,64.25,64.25,0,0,0,4.83,7.5,53.43,53.43,0,0,0,6,6.61,49,49,0,0,0,7.09,5.4l-.5.43a248.07,248.07,0,0,1-9.21-25.7,236.61,236.61,0,0,1-6.36-26.54,159.54,159.54,0,0,1-2.51-27.16,112.61,112.61,0,0,1,.82-13.61,87.77,87.77,0,0,1,2.77-13.34,87.94,87.94,0,0,0-2.64,13.36,112.16,112.16,0,0,0-.69,13.59,161.75,161.75,0,0,0,2.75,27.07,236.12,236.12,0,0,0,6.44,26.46,246.31,246.31,0,0,0,9.26,25.59l.44,1-.93-.6a50.25,50.25,0,0,1-7.22-5.45,54.23,54.23,0,0,1-6.07-6.69,63.72,63.72,0,0,1-4.91-7.58,81.06,81.06,0,0,1-3.86-8.16,99.32,99.32,0,0,1-5-17.3,106.68,106.68,0,0,1-2-17.92l.92.08a93,93,0,0,0-.67,19,152.52,152.52,0,0,0,2.72,18.9c1.35,6.23,3,12.4,5,18.47a187.7,187.7,0,0,0,6.69,17.91l.23.52-.56.06-9.1,1.05c-3,.53-6,1-9,1.57l-4.46,1-2.24.5-2.2.62-4.41,1.24-4.33,1.47a97.42,97.42,0,0,0-16.63,7.58c-1.29.81-2.61,1.57-3.87,2.42s-2.53,1.71-3.71,2.67A41.6,41.6,0,0,0,219,394l-.22.26-.22-.23a28.66,28.66,0,0,1-5.26-7.91,56.87,56.87,0,0,1-3.22-8.92,86.11,86.11,0,0,1-2-9.25c-.53-3.11-.91-6.24-1.21-9.38-.61-6.28-.84-12.58-.86-18.88S206.14,327.05,206.64,320.77Z" transform="translate(-91.89 -84.96)"/><path d="M296.5,352.66c3.9,6.87,7.77,13.77,11.85,20.53.26.42.52.84.79,1.25.13.21.27.41.42.61s.19.26.14.18a1.84,1.84,0,0,0,.05-.35c0-1,0-2-.09-2.95-.11-2-.26-3.95-.41-5.92l-.92-11.81c-.58-7.88-1.11-15.77-1.37-23.67-.13-3.95-.19-7.91-.09-11.86.06-2,.16-4,.36-5.93a22.2,22.2,0,0,1,1.23-5.84l.22-.55.15.58c1.24,4.73,2.35,9.49,3.39,14.27s2,9.57,2.76,14.4,1.49,9.67,1.91,14.55a92.23,92.23,0,0,1,.32,14.68l-.53-.11c1.06-3.06,2-6.17,2.85-9.3s1.61-6.28,2.22-9.47a91.54,91.54,0,0,0,1.4-9.61,51.21,51.21,0,0,0,0-9.67l.6,0,1.3,38.3-.46-.3c9.15-3.91,18.47-7.39,27.9-10.56q7.06-2.37,14.25-4.42c4.78-1.39,9.61-2.59,14.46-3.71l-.29.35c.11-9.07-.19-18.15-.76-27.21S378.68,301,377.36,292a211.2,211.2,0,0,0-5.53-26.61,118.5,118.5,0,0,0-4.34-12.86,81.89,81.89,0,0,0-6-12.13l.79-.44c4,8.32,7.7,16.76,11.24,25.27s6.86,17.11,9.87,25.83a244.63,244.63,0,0,1,7.72,26.57,114.5,114.5,0,0,1,2.29,13.68,51.79,51.79,0,0,1-.24,13.9l-.87-.32a46.83,46.83,0,0,0,3.53-9.86c.48-1.69.76-3.43,1.16-5.15s.58-3.47.81-5.22a123.15,123.15,0,0,0,.83-21.12,186.21,186.21,0,0,0-2.07-21.07c-.59-3.48-1.25-7-1.89-10.43l-2.36-10.33-.87-3.8,1.64,3.52a190.33,190.33,0,0,1,7.15,18c2.08,6.09,3.87,12.29,5.37,18.56A155.75,155.75,0,0,1,408.82,317a110.56,110.56,0,0,1,.21,19.34l-.67-.17a95.53,95.53,0,0,0,3.74-11.36,104.41,104.41,0,0,0,2.36-11.75,83.57,83.57,0,0,0,.86-11.93,70.91,70.91,0,0,0-1-11.91l.62-.17c1.29,3.57,2.39,7.2,3.38,10.85s1.86,7.35,2.51,11.09a87.29,87.29,0,0,1,1.32,11.3,47.62,47.62,0,0,1-.76,11.36l-.34-.34c7.12-1.51,14.28-2.87,21.48-4,3.6-.55,7.21-1,10.85-1.36,1.81-.16,3.64-.28,5.47-.28a23,23,0,0,1,2.75.13,6,6,0,0,1,2.72.81l-.39.12a62.72,62.72,0,0,0,2.1-10.72,66.62,66.62,0,0,0,.3-10.94c-.07-1.82-.32-3.63-.54-5.45-.13-.9-.32-1.79-.48-2.69l-.26-1.34-.35-1.33A52.11,52.11,0,0,0,461,286l-.43-.94.71.73a88.58,88.58,0,0,1,12.59,16.75,76,76,0,0,1,4.57,9.44c.31.81.59,1.64.88,2.47l.43,1.24.35,1.26.69,2.54.49,2.57c.61,3.45,1,6.93,1.3,10.4s.54,7,.68,10.46c.27,7,.25,14-.15,21,.37-7,.36-14,.06-20.94-.16-3.49-.38-7-.72-10.45s-.72-6.95-1.34-10.39l-.5-2.56-.7-2.52-.35-1.26-.44-1.23c-.29-.82-.57-1.65-.88-2.46a76.25,76.25,0,0,0-4.6-9.39A88.09,88.09,0,0,0,461,286.08l.28-.2a52.91,52.91,0,0,1,3.83,10.32l.35,1.34.26,1.35c.17.91.37,1.8.51,2.71.23,1.83.48,3.65.56,5.49a66.36,66.36,0,0,1-.25,11,61.7,61.7,0,0,1-2.11,10.83l-.09.33-.3-.2a5.69,5.69,0,0,0-2.48-.71,21.84,21.84,0,0,0-2.69-.12c-1.81,0-3.62.12-5.43.28-3.61.33-7.21.83-10.81,1.38-7.18,1.13-14.33,2.49-21.44,4l-.43.09.09-.43a47.87,47.87,0,0,0,.73-11.22,84.64,84.64,0,0,0-1.33-11.21c-.65-3.72-1.53-7.39-2.51-11s-2.09-7.26-3.38-10.8l.61-.17a72.46,72.46,0,0,1,1,12,83.5,83.5,0,0,1-.85,12A105.61,105.61,0,0,1,412.77,325,95.47,95.47,0,0,1,409,336.48l-.85,2.08.17-2.25a111.93,111.93,0,0,0-.24-19.2,155.8,155.8,0,0,0-3.25-19q-2.23-9.36-5.37-18.49a188.79,188.79,0,0,0-7.14-17.86l.77-.28,2.38,10.36c.65,3.49,1.31,7,1.91,10.47a185.51,185.51,0,0,1,2.11,21.17,125,125,0,0,1-.8,21.27c-.24,1.76-.55,3.51-.82,5.27s-.68,3.5-1.16,5.21a47.78,47.78,0,0,1-3.61,10.1l-1.41,2.74.53-3.06a50.62,50.62,0,0,0,.21-13.64,113.06,113.06,0,0,0-2.29-13.55,251.74,251.74,0,0,0-7.69-26.47c-3-8.7-6.3-17.29-9.8-25.79s-7.23-16.94-11.19-25.23l.78-.44a83.33,83.33,0,0,1,6.06,12.28,123.22,123.22,0,0,1,4.35,13,211.78,211.78,0,0,1,5.51,26.72c1.31,9,2.19,18.07,2.76,27.14s.85,18.17.72,27.28v.28l-.28.07c-4.83,1.12-9.65,2.3-14.42,3.68s-9.52,2.82-14.23,4.4c-9.41,3.14-18.73,6.61-27.85,10.5l-.45.19,0-.48-1.24-38.3.6,0a51.64,51.64,0,0,1,0,9.79,91.94,91.94,0,0,1-1.42,9.67c-.62,3.2-1.41,6.36-2.25,9.51s-1.8,6.25-2.88,9.33l-.68,2,.15-2.07a91.29,91.29,0,0,0-.29-14.6c-.41-4.86-1.11-9.69-1.89-14.51s-1.7-9.61-2.71-14.39-2.1-9.54-3.32-14.26l.37,0a21.92,21.92,0,0,0-1.22,5.72c-.21,2-.32,3.93-.38,5.9-.12,3.94-.08,7.89,0,11.84.24,7.89.73,15.78,1.28,23.66l.86,11.82c.15,2,.29,3.94.4,5.92,0,1,.11,2,.07,3a1.36,1.36,0,0,1-.06.38.11.11,0,0,1-.14.08.3.3,0,0,1-.08-.09l-.11-.15c-.15-.2-.29-.4-.42-.61-.27-.42-.53-.84-.79-1.26C304.21,366.46,300.37,359.55,296.5,352.66Z" transform="translate(-91.89 -84.96)"/><path class="cls-1" d="M415.49,180.09s47.61,35.74,65.42,140.68" transform="translate(-91.89 -84.96)"/><path class="cls-1" d="M481.36,323.23s6.9,120-6.64,170.13c0,0-9.19,63.07-19.91,82,0,0,20.42-30.48,22.47-50.86,0,0-18.64,64.62-.51,114.29,0,0,3.26-40.06,6.35-43.7,0,0-1,29.91,12.54,50.16,0,0,11.37-42.92,19.52-60.84a45.62,45.62,0,0,0,2.62-7.47c3.8-14.69,15.14-61.34,12.58-84.81,0,0-.25,49.94,6.64,62.76,0,0,15.83-166.42,17.36-197.57,0,0,11.35-76.06-24.45-123.31" transform="translate(-91.89 -84.96)"/><path class="cls-1" d="M546.38,473.19s19.43-5.45,24.53-22.47,4.41-46.29,4.41-46.29S571.61,352.5,553,376.76" transform="translate(-91.89 -84.96)"/><path class="cls-1" d="M569.19,480.35s44.94-36.26,39.07-79.16a97.79,97.79,0,0,1,5.87,38.4s29.68-69,4.63-117.55" transform="translate(-91.89 -84.96)"/><path class="cls-1" d="M644.07,333.69s-.46,49.17-17.9,63.42" transform="translate(-91.89 -84.96)"/><path class="cls-1" d="M476.45,486.08" transform="translate(-91.89 -84.96)"/><path class="cls-1" d="M483.06,363.91l61.06,114.88,2.26-23.64s4.77,5.11,14.49-6.81,3.56-29.28,1.81-48.71S552,389.72,552,389.72" transform="translate(-91.89 -84.96)"/><path class="cls-1" d="M493.78,340.77" transform="translate(-91.89 -84.96)"/><path class="cls-1" d="M482.44,348.93s48.52,61.4,63.94,106.22" transform="translate(-91.89 -84.96)"/><polyline class="cls-1" points="385.49 396.28 422.51 337.93 416.86 327.29 387.97 378.87"/><polyline class="cls-1" points="426.09 314.66 463.2 264.84 462.04 280.12 431.21 322.98"/><path d="M262.77,482.86c.78-1.19,1.58-2.37,2.41-3.54a13.32,13.32,0,0,1,1.26-1.72,7.9,7.9,0,0,1,1.69-1.38.06.06,0,0,1,.07,0,.09.09,0,0,1,0,.05,8.06,8.06,0,0,1-1,1.94,13.43,13.43,0,0,1-1.42,1.6c-1,1.05-1.95,2.08-2.95,3.1h-.07A.06.06,0,0,1,262.77,482.86Z" transform="translate(-91.89 -84.96)"/><path d="M277.53,492.54c.35-1.38.73-2.76,1.13-4.13a13.36,13.36,0,0,1,.63-2,7.64,7.64,0,0,1,1.14-1.85.06.06,0,0,1,.08,0l0,0a7.62,7.62,0,0,1-.3,2.16,13.63,13.63,0,0,1-.82,2c-.57,1.31-1.16,2.61-1.78,3.9a.06.06,0,0,1-.07,0A.06.06,0,0,1,277.53,492.54Z" transform="translate(-91.89 -84.96)"/><path d="M298.64,494.31c-.32-1.39-.62-2.79-.89-4.19a12.64,12.64,0,0,1-.36-2.1,7.71,7.71,0,0,1,.17-2.18.07.07,0,0,1,.07,0l0,0a8,8,0,0,1,.72,2.06,13.8,13.8,0,0,1,.17,2.13c.09,1.42.15,2.85.19,4.28a.05.05,0,0,1-.05.05A.07.07,0,0,1,298.64,494.31Z" transform="translate(-91.89 -84.96)"/><path d="M315.23,488.81c-1.13-.88-2.25-1.77-3.34-2.68a12.71,12.71,0,0,1-1.62-1.4,7.7,7.7,0,0,1-1.24-1.79.05.05,0,0,1,0-.07h0A7.73,7.73,0,0,1,311,484a12.69,12.69,0,0,1,1.48,1.54q1.46,1.56,2.86,3.18a0,0,0,0,1,0,.07A0,0,0,0,1,315.23,488.81Z" transform="translate(-91.89 -84.96)"/><path d="M325.21,472a57.37,57.37,0,0,1-14.12,10.22,46.61,46.61,0,0,1-16.88,5.05,42.07,42.07,0,0,1-9-.15,33.46,33.46,0,0,1-8.65-2.48,38.91,38.91,0,0,1-13.88-10.85.14.14,0,0,1,0-.21.15.15,0,0,1,.17,0h0c1.25.78,2.39,1.65,3.6,2.42l1.82,1.14.9.57.93.52c.63.34,1.24.69,1.85,1.05s1.27.61,1.9.92c1.23.67,2.56,1.13,3.84,1.68a58.31,58.31,0,0,0,8,2.33,36.73,36.73,0,0,0,8.32.68,44.8,44.8,0,0,0,16.39-4A59,59,0,0,0,325,471.81h0a.16.16,0,0,1,.21,0A.14.14,0,0,1,325.21,472Z" transform="translate(-91.89 -84.96)"/><path d="M430.41,456.24q1.17-1.8,2.4-3.54a12.73,12.73,0,0,1,1.27-1.72,7.9,7.9,0,0,1,1.69-1.38s.06,0,.07,0a.06.06,0,0,1,0,0,8,8,0,0,1-1,1.95,12.44,12.44,0,0,1-1.41,1.59c-1,1.05-1.95,2.09-3,3.1a0,0,0,0,1-.07,0S430.39,456.26,430.41,456.24Z" transform="translate(-91.89 -84.96)"/><path d="M447.75,462.09c.35-1.38.72-2.76,1.12-4.13a13,13,0,0,1,.63-2,8,8,0,0,1,1.15-1.85,0,0,0,0,1,.09,0,7.67,7.67,0,0,1-.3,2.16,12.05,12.05,0,0,1-.82,2c-.56,1.31-1.16,2.61-1.78,3.9a0,0,0,0,1-.09,0Z" transform="translate(-91.89 -84.96)"/><path d="M473.33,461.1q-.85-2-1.62-4a12.35,12.35,0,0,1-.74-2,8.16,8.16,0,0,1-.22-2.17.05.05,0,0,1,.06-.05s0,0,0,0a7.76,7.76,0,0,1,1.07,1.89,12.39,12.39,0,0,1,.55,2.07q.52,2.07,1,4.17a.05.05,0,0,1,0,.06A.06.06,0,0,1,473.33,461.1Z" transform="translate(-91.89 -84.96)"/><path d="M481,450.05a70.89,70.89,0,0,1-12.59,4.58A60.65,60.65,0,0,1,455,456.44a41.26,41.26,0,0,1-13.52-1.62,35.92,35.92,0,0,1-11.95-6.39.17.17,0,0,1,0-.22.15.15,0,0,1,.17,0c4.27,1.43,8.38,2.8,12.6,3.76A74.85,74.85,0,0,0,455.05,454a58.34,58.34,0,0,0,13-.88,77.42,77.42,0,0,0,12.78-3.38.16.16,0,0,1,.2.09A.15.15,0,0,1,481,450.05Z" transform="translate(-91.89 -84.96)"/><path d="M229.1,421.75s18.9-22.6,60.26-28c3.09-.15,6.23-.21,9.17-1.27,1.62-.58,1.8-2.17,1.41-3.69-.34-1.36-1.57-1.74-2.83-1.85C293.28,386.64,240.93,393,229.1,421.75Z" transform="translate(-91.89 -84.96)"/><path d="M298.53,392.52s22.47,11.53,30.13,28.6l.28.63c7.4,17.36-.09-.21-.09-.21a61.51,61.51,0,0,0-29.46-33.7" transform="translate(-91.89 -84.96)"/><path d="M398.35,371.17a1.35,1.35,0,0,0,1.78,1.8c8.1-3.68,33.53-14.78,44.08-14,11.6.82,29.44-.63,36.84,1.31a1.37,1.37,0,0,0,1.72-1.3h0a1.36,1.36,0,0,0-1.16-1.34c-8-1.19-55.91-7.64-73.78,4.39C407.83,362,400.68,366.07,398.35,371.17Z" transform="translate(-91.89 -84.96)"/><path class="cls-1" d="M234.89,426.89s12.26-5.78,24.51-5.95,30.81-9.54,30.81-9.54" transform="translate(-91.89 -84.96)"/><path d="M238.38,425.44a18.07,18.07,0,0,1,1.3,7.25,19.25,19.25,0,0,1-1.51,7.29,14.64,14.64,0,0,1-.82,1.69l-.44.83c-.15.27-.34.52-.51.78l-1.08,1.53c-.41.47-.83.93-1.25,1.38l-.63.69-.71.6-1.4,1.21c-1,.73-2,1.39-3.07,2,.9-.83,1.88-1.56,2.75-2.4l1.28-1.29.64-.64.56-.71c.37-.47.75-.94,1.13-1.4l1-1.51c.15-.26.34-.49.48-.76l.4-.79a15,15,0,0,0,.77-1.62,23.23,23.23,0,0,0,1.67-10.55A21.27,21.27,0,0,0,238.38,425.44Z" transform="translate(-91.89 -84.96)"/><path d="M239.33,433.7s44.17-1,67.8-20.16a1.41,1.41,0,0,1,2,.23l5.11,6.66a1.41,1.41,0,0,1-.45,2.11c-8.26,4.45-49.9,25.85-78.51,21.56" transform="translate(-91.89 -84.96)"/><path d="M253,457.85c-2.87-6.69-11-13.59-11-13.59l4.59-2.47C249,444.14,251.62,452.75,253,457.85Z" transform="translate(-91.89 -84.96)"/><path class="cls-2" d="M279,370" transform="translate(-91.89 -84.96)"/><path class="cls-1" d="M267.05,441.28s7.41,43.38,45.12,27.37c16.38-7,12.27-26.49,2.38-46.35" transform="translate(-91.89 -84.96)"/><path class="cls-1" d="M278.43,436.43s7.53,35.72,30.22,21.62c9.86-6.13,4.86-25.34-5-32.61" transform="translate(-91.89 -84.96)"/><path d="M409.91,384a10.76,10.76,0,0,1,3.3-2.69,19.68,19.68,0,0,1,4-1.67,33,33,0,0,1,8.49-1.25c1.43-.08,2.87,0,4.29.06s2.82.12,4.23.07c2.83,0,5.66-.23,8.48-.45,5.65-.41,11.29-1.12,16.92-1.86,2.81-.36,5.63-.75,8.44-1.17l8.43-1.25c-5.55,1.26-11.14,2.28-16.76,3.19s-11.27,1.6-16.95,2.09c-2.85.19-5.69.37-8.55.36s-5.72-.26-8.52-.27a33.19,33.19,0,0,0-8.37.95,19.11,19.11,0,0,0-4,1.43A11.48,11.48,0,0,0,409.91,384Z" transform="translate(-91.89 -84.96)"/><path d="M396.09,407.94l6.28-6.23c1-1,2.05-2.08,3-3.16s2-2.14,2.91-3.26,1.86-2.21,2.71-3.38a40.73,40.73,0,0,0,2.41-3.58,17.67,17.67,0,0,0,2.72-8.13,10.7,10.7,0,0,1,.08,4.51,18.86,18.86,0,0,1-1.42,4.34,33.54,33.54,0,0,1-5,7.54,52.71,52.71,0,0,1-6.41,6.27A47.21,47.21,0,0,1,396.09,407.94Z" transform="translate(-91.89 -84.96)"/><path d="M396.09,407.94s12.25-3.51,14.8-7.94l4.43,3.57s51.91-1,67.74-9.5V381.28s-22.59,14.46-69.25,8C413.81,389.27,413.45,396.71,396.09,407.94Z" transform="translate(-91.89 -84.96)"/><path d="M415.32,403.57s-4.17,17.71-1.53,26.39c0,0-4.94-5.79-5.62-27.92l2.47-4.85,4.68,3.92Z" transform="translate(-91.89 -84.96)"/><path class="cls-2" d="M434.48,402.7s1.19,38.09,35.22,37.56c0,0,10.86-.78,12.37-4.52" transform="translate(-91.89 -84.96)"/><path class="cls-2" d="M447,401.68s1.3,36.79,35.46,22" transform="translate(-91.89 -84.96)"/><circle class="cls-3" cx="377.75" cy="323.53" r="2.84"/><circle class="cls-3" cx="204.6" cy="356.83" r="2.84"/></svg>
